<mxfile host="Electron" agent="Mozilla/5.0 (Windows NT 10.0; Win64; x64) AppleWebKit/537.36 (KHTML, like Gecko) draw.io/26.0.4 Chrome/128.0.6613.186 Electron/32.2.5 Safari/537.36" version="26.0.4">
  <diagram name="第 1 页" id="SURr1TtjWjjSJ12aDri0">
    <mxGraphModel dx="555" dy="497" grid="1" gridSize="10" guides="1" tooltips="1" connect="1" arrows="1" fold="1" page="1" pageScale="1" pageWidth="827" pageHeight="1169" math="0" shadow="0">
      <root>
        <mxCell id="0" />
        <mxCell id="1" parent="0" />
        <mxCell id="EL1DB7igVv2I7l6E-Yy5-3" value="" style="edgeStyle=orthogonalEdgeStyle;rounded=0;orthogonalLoop=1;jettySize=auto;html=1;" parent="1" source="EL1DB7igVv2I7l6E-Yy5-1" target="EL1DB7igVv2I7l6E-Yy5-2" edge="1">
          <mxGeometry relative="1" as="geometry">
            <Array as="points">
              <mxPoint x="140" y="430" />
            </Array>
          </mxGeometry>
        </mxCell>
        <mxCell id="EL1DB7igVv2I7l6E-Yy5-1" value="输入指令/数据" style="whiteSpace=wrap;html=1;" parent="1" vertex="1">
          <mxGeometry x="80" y="320" width="120" height="60" as="geometry" />
        </mxCell>
        <mxCell id="EL1DB7igVv2I7l6E-Yy5-5" value="" style="edgeStyle=orthogonalEdgeStyle;rounded=0;orthogonalLoop=1;jettySize=auto;html=1;" parent="1" source="EL1DB7igVv2I7l6E-Yy5-2" target="EL1DB7igVv2I7l6E-Yy5-4" edge="1">
          <mxGeometry relative="1" as="geometry" />
        </mxCell>
        <mxCell id="EL1DB7igVv2I7l6E-Yy5-2" value="输出处理&lt;div&gt;根据指令处理数据&lt;/div&gt;" style="whiteSpace=wrap;html=1;" parent="1" vertex="1">
          <mxGeometry x="240" y="400" width="120" height="60" as="geometry" />
        </mxCell>
        <mxCell id="EL1DB7igVv2I7l6E-Yy5-4" value="输出结果" style="whiteSpace=wrap;html=1;" parent="1" vertex="1">
          <mxGeometry x="400" y="320" width="120" height="60" as="geometry" />
        </mxCell>
        <mxCell id="EL1DB7igVv2I7l6E-Yy5-6" value="键盘输入&lt;div&gt;鼠标输入&lt;/div&gt;&lt;div&gt;扫描仪输入&lt;/div&gt;&lt;div&gt;......&lt;/div&gt;" style="text;html=1;align=center;verticalAlign=middle;resizable=0;points=[];autosize=1;strokeColor=none;fillColor=none;" parent="1" vertex="1">
          <mxGeometry x="90" y="250" width="80" height="70" as="geometry" />
        </mxCell>
        <mxCell id="EL1DB7igVv2I7l6E-Yy5-7" value="CPU运算&lt;div&gt;GPU渲染&lt;/div&gt;&lt;div&gt;......&lt;/div&gt;" style="text;html=1;align=center;verticalAlign=middle;resizable=0;points=[];autosize=1;strokeColor=none;fillColor=none;" parent="1" vertex="1">
          <mxGeometry x="265" y="340" width="70" height="60" as="geometry" />
        </mxCell>
        <mxCell id="EL1DB7igVv2I7l6E-Yy5-8" value="屏幕显示&lt;div&gt;扬声器输出&lt;/div&gt;&lt;div&gt;......&lt;/div&gt;" style="text;html=1;align=center;verticalAlign=middle;resizable=0;points=[];autosize=1;strokeColor=none;fillColor=none;" parent="1" vertex="1">
          <mxGeometry x="420" y="260" width="80" height="60" as="geometry" />
        </mxCell>
        <mxCell id="EL1DB7igVv2I7l6E-Yy5-14" value="" style="edgeStyle=orthogonalEdgeStyle;rounded=0;orthogonalLoop=1;jettySize=auto;html=1;" parent="1" source="EL1DB7igVv2I7l6E-Yy5-9" target="EL1DB7igVv2I7l6E-Yy5-10" edge="1">
          <mxGeometry relative="1" as="geometry" />
        </mxCell>
        <mxCell id="EL1DB7igVv2I7l6E-Yy5-33" style="edgeStyle=orthogonalEdgeStyle;rounded=0;orthogonalLoop=1;jettySize=auto;html=1;entryX=0;entryY=0.75;entryDx=0;entryDy=0;startArrow=classic;startFill=1;" parent="1" source="EL1DB7igVv2I7l6E-Yy5-9" target="EL1DB7igVv2I7l6E-Yy5-13" edge="1">
          <mxGeometry relative="1" as="geometry">
            <Array as="points">
              <mxPoint x="180" y="745" />
            </Array>
          </mxGeometry>
        </mxCell>
        <mxCell id="EL1DB7igVv2I7l6E-Yy5-9" value="输入设备" style="whiteSpace=wrap;html=1;" parent="1" vertex="1">
          <mxGeometry x="120" y="600" width="120" height="60" as="geometry" />
        </mxCell>
        <mxCell id="EL1DB7igVv2I7l6E-Yy5-15" value="" style="edgeStyle=orthogonalEdgeStyle;rounded=0;orthogonalLoop=1;jettySize=auto;html=1;" parent="1" source="EL1DB7igVv2I7l6E-Yy5-10" target="EL1DB7igVv2I7l6E-Yy5-11" edge="1">
          <mxGeometry relative="1" as="geometry" />
        </mxCell>
        <mxCell id="EL1DB7igVv2I7l6E-Yy5-23" value="" style="edgeStyle=orthogonalEdgeStyle;rounded=0;orthogonalLoop=1;jettySize=auto;html=1;startArrow=classic;startFill=1;" parent="1" source="EL1DB7igVv2I7l6E-Yy5-10" target="EL1DB7igVv2I7l6E-Yy5-13" edge="1">
          <mxGeometry relative="1" as="geometry" />
        </mxCell>
        <mxCell id="EL1DB7igVv2I7l6E-Yy5-10" value="存储器" style="whiteSpace=wrap;html=1;" parent="1" vertex="1">
          <mxGeometry x="280" y="600" width="120" height="60" as="geometry" />
        </mxCell>
        <mxCell id="EL1DB7igVv2I7l6E-Yy5-11" value="输出设备" style="whiteSpace=wrap;html=1;" parent="1" vertex="1">
          <mxGeometry x="440" y="600" width="120" height="60" as="geometry" />
        </mxCell>
        <mxCell id="EL1DB7igVv2I7l6E-Yy5-22" value="" style="edgeStyle=orthogonalEdgeStyle;rounded=0;orthogonalLoop=1;jettySize=auto;html=1;startArrow=classic;startFill=1;" parent="1" source="EL1DB7igVv2I7l6E-Yy5-12" target="EL1DB7igVv2I7l6E-Yy5-10" edge="1">
          <mxGeometry relative="1" as="geometry" />
        </mxCell>
        <mxCell id="EL1DB7igVv2I7l6E-Yy5-29" style="edgeStyle=orthogonalEdgeStyle;rounded=0;orthogonalLoop=1;jettySize=auto;html=1;entryX=0;entryY=0.25;entryDx=0;entryDy=0;" parent="1" source="EL1DB7igVv2I7l6E-Yy5-12" target="EL1DB7igVv2I7l6E-Yy5-13" edge="1">
          <mxGeometry relative="1" as="geometry">
            <Array as="points">
              <mxPoint x="260" y="530" />
              <mxPoint x="260" y="715" />
            </Array>
          </mxGeometry>
        </mxCell>
        <mxCell id="EL1DB7igVv2I7l6E-Yy5-12" value="运算器" style="whiteSpace=wrap;html=1;" parent="1" vertex="1">
          <mxGeometry x="280" y="500" width="120" height="60" as="geometry" />
        </mxCell>
        <mxCell id="EL1DB7igVv2I7l6E-Yy5-26" style="edgeStyle=orthogonalEdgeStyle;rounded=0;orthogonalLoop=1;jettySize=auto;html=1;entryX=1;entryY=0.5;entryDx=0;entryDy=0;" parent="1" source="EL1DB7igVv2I7l6E-Yy5-13" target="EL1DB7igVv2I7l6E-Yy5-12" edge="1">
          <mxGeometry relative="1" as="geometry">
            <Array as="points">
              <mxPoint x="420" y="720" />
              <mxPoint x="420" y="530" />
            </Array>
          </mxGeometry>
        </mxCell>
        <mxCell id="EL1DB7igVv2I7l6E-Yy5-31" style="edgeStyle=orthogonalEdgeStyle;rounded=0;orthogonalLoop=1;jettySize=auto;html=1;entryX=0.5;entryY=1;entryDx=0;entryDy=0;startArrow=classic;startFill=1;" parent="1" source="EL1DB7igVv2I7l6E-Yy5-13" target="EL1DB7igVv2I7l6E-Yy5-11" edge="1">
          <mxGeometry relative="1" as="geometry">
            <Array as="points">
              <mxPoint x="500" y="740" />
            </Array>
          </mxGeometry>
        </mxCell>
        <mxCell id="EL1DB7igVv2I7l6E-Yy5-13" value="控制器" style="whiteSpace=wrap;html=1;" parent="1" vertex="1">
          <mxGeometry x="280" y="700" width="120" height="60" as="geometry" />
        </mxCell>
        <mxCell id="EL1DB7igVv2I7l6E-Yy5-16" value="数据输入" style="text;html=1;align=center;verticalAlign=middle;resizable=0;points=[];autosize=1;strokeColor=none;fillColor=none;" parent="1" vertex="1">
          <mxGeometry x="30" y="600" width="70" height="30" as="geometry" />
        </mxCell>
        <mxCell id="EL1DB7igVv2I7l6E-Yy5-17" value="结果" style="text;html=1;align=center;verticalAlign=middle;resizable=0;points=[];autosize=1;strokeColor=none;fillColor=none;" parent="1" vertex="1">
          <mxGeometry x="560" y="600" width="50" height="30" as="geometry" />
        </mxCell>
        <mxCell id="EL1DB7igVv2I7l6E-Yy5-19" value="" style="edgeStyle=none;orthogonalLoop=1;jettySize=auto;html=1;shape=flexArrow;rounded=1;startSize=8;endSize=8;" parent="1" edge="1">
          <mxGeometry width="100" relative="1" as="geometry">
            <mxPoint x="40" y="630" as="sourcePoint" />
            <mxPoint x="120" y="630" as="targetPoint" />
            <Array as="points" />
          </mxGeometry>
        </mxCell>
        <mxCell id="EL1DB7igVv2I7l6E-Yy5-20" value="" style="edgeStyle=none;orthogonalLoop=1;jettySize=auto;html=1;shape=flexArrow;rounded=1;startSize=8;endSize=8;" parent="1" edge="1">
          <mxGeometry width="100" relative="1" as="geometry">
            <mxPoint x="560" y="629.66" as="sourcePoint" />
            <mxPoint x="640" y="629.66" as="targetPoint" />
            <Array as="points" />
          </mxGeometry>
        </mxCell>
        <mxCell id="EL1DB7igVv2I7l6E-Yy5-24" value="地址" style="text;html=1;align=center;verticalAlign=middle;resizable=0;points=[];autosize=1;strokeColor=none;fillColor=none;" parent="1" vertex="1">
          <mxGeometry x="280" y="668" width="50" height="30" as="geometry" />
        </mxCell>
        <mxCell id="EL1DB7igVv2I7l6E-Yy5-25" value="指令" style="text;html=1;align=center;verticalAlign=middle;resizable=0;points=[];autosize=1;strokeColor=none;fillColor=none;" parent="1" vertex="1">
          <mxGeometry x="350" y="668" width="50" height="30" as="geometry" />
        </mxCell>
        <mxCell id="EL1DB7igVv2I7l6E-Yy5-27" value="处理指令" style="text;html=1;align=center;verticalAlign=middle;resizable=0;points=[];autosize=1;strokeColor=none;fillColor=none;" parent="1" vertex="1">
          <mxGeometry x="420" y="530" width="70" height="30" as="geometry" />
        </mxCell>
        <mxCell id="EL1DB7igVv2I7l6E-Yy5-30" value="处理结果" style="text;html=1;align=center;verticalAlign=middle;resizable=0;points=[];autosize=1;strokeColor=none;fillColor=none;" parent="1" vertex="1">
          <mxGeometry x="190" y="530" width="70" height="30" as="geometry" />
        </mxCell>
        <mxCell id="EL1DB7igVv2I7l6E-Yy5-32" value="控制信号" style="text;html=1;align=center;verticalAlign=middle;resizable=0;points=[];autosize=1;strokeColor=none;fillColor=none;" parent="1" vertex="1">
          <mxGeometry x="500" y="670" width="70" height="30" as="geometry" />
        </mxCell>
        <mxCell id="EL1DB7igVv2I7l6E-Yy5-34" value="控制信号" style="text;html=1;align=center;verticalAlign=middle;resizable=0;points=[];autosize=1;strokeColor=none;fillColor=none;" parent="1" vertex="1">
          <mxGeometry x="180" y="668" width="70" height="30" as="geometry" />
        </mxCell>
        <mxCell id="EL1DB7igVv2I7l6E-Yy5-35" value="处理结果" style="text;html=1;align=center;verticalAlign=middle;resizable=0;points=[];autosize=1;strokeColor=none;fillColor=none;" parent="1" vertex="1">
          <mxGeometry x="110" y="668" width="70" height="30" as="geometry" />
        </mxCell>
        <mxCell id="EL1DB7igVv2I7l6E-Yy5-36" value="处理结果" style="text;html=1;align=center;verticalAlign=middle;resizable=0;points=[];autosize=1;strokeColor=none;fillColor=none;" parent="1" vertex="1">
          <mxGeometry x="420" y="740" width="70" height="30" as="geometry" />
        </mxCell>
        <mxCell id="uorP1rLEvrpVJQ6o8FZj-1" style="edgeStyle=orthogonalEdgeStyle;rounded=0;orthogonalLoop=1;jettySize=auto;html=1;entryX=0.5;entryY=1;entryDx=0;entryDy=0;" parent="1" source="uorP1rLEvrpVJQ6o8FZj-3" target="uorP1rLEvrpVJQ6o8FZj-6" edge="1">
          <mxGeometry relative="1" as="geometry" />
        </mxCell>
        <mxCell id="uorP1rLEvrpVJQ6o8FZj-2" style="edgeStyle=orthogonalEdgeStyle;rounded=0;orthogonalLoop=1;jettySize=auto;html=1;entryX=0;entryY=0.5;entryDx=0;entryDy=0;" parent="1" source="uorP1rLEvrpVJQ6o8FZj-3" target="uorP1rLEvrpVJQ6o8FZj-7" edge="1">
          <mxGeometry relative="1" as="geometry" />
        </mxCell>
        <mxCell id="uorP1rLEvrpVJQ6o8FZj-3" value="" style="whiteSpace=wrap;html=1;" parent="1" vertex="1">
          <mxGeometry x="240" y="110" width="200" height="110" as="geometry" />
        </mxCell>
        <mxCell id="uorP1rLEvrpVJQ6o8FZj-4" value="CPU" style="text;html=1;align=center;verticalAlign=middle;resizable=0;points=[];autosize=1;strokeColor=none;fillColor=none;" parent="1" vertex="1">
          <mxGeometry x="250" y="120" width="50" height="30" as="geometry" />
        </mxCell>
        <mxCell id="uorP1rLEvrpVJQ6o8FZj-5" value="硬盘" style="text;html=1;align=center;verticalAlign=middle;resizable=0;points=[];autosize=1;strokeColor=none;fillColor=none;" parent="1" vertex="1">
          <mxGeometry x="300" y="120" width="50" height="30" as="geometry" />
        </mxCell>
        <mxCell id="uorP1rLEvrpVJQ6o8FZj-6" value="显示器" style="rounded=1;whiteSpace=wrap;html=1;" parent="1" vertex="1">
          <mxGeometry x="480" y="110" width="120" height="60" as="geometry" />
        </mxCell>
        <mxCell id="uorP1rLEvrpVJQ6o8FZj-7" value="音响" style="rounded=1;whiteSpace=wrap;html=1;" parent="1" vertex="1">
          <mxGeometry x="640" y="160" width="120" height="60" as="geometry" />
        </mxCell>
        <mxCell id="uorP1rLEvrpVJQ6o8FZj-8" value="声卡" style="text;html=1;align=center;verticalAlign=middle;resizable=0;points=[];autosize=1;strokeColor=none;fillColor=none;" parent="1" vertex="1">
          <mxGeometry x="350" y="120" width="50" height="30" as="geometry" />
        </mxCell>
        <mxCell id="uorP1rLEvrpVJQ6o8FZj-9" value="内存" style="text;html=1;align=center;verticalAlign=middle;resizable=0;points=[];autosize=1;strokeColor=none;fillColor=none;" parent="1" vertex="1">
          <mxGeometry x="250" y="150" width="50" height="30" as="geometry" />
        </mxCell>
        <mxCell id="uorP1rLEvrpVJQ6o8FZj-10" value="显卡" style="text;html=1;align=center;verticalAlign=middle;resizable=0;points=[];autosize=1;strokeColor=none;fillColor=none;" parent="1" vertex="1">
          <mxGeometry x="300" y="150" width="50" height="30" as="geometry" />
        </mxCell>
        <mxCell id="uorP1rLEvrpVJQ6o8FZj-11" value="电源" style="text;html=1;align=center;verticalAlign=middle;resizable=0;points=[];autosize=1;strokeColor=none;fillColor=none;" parent="1" vertex="1">
          <mxGeometry x="250" y="180" width="50" height="30" as="geometry" />
        </mxCell>
        <mxCell id="uorP1rLEvrpVJQ6o8FZj-12" value="网卡" style="text;html=1;align=center;verticalAlign=middle;resizable=0;points=[];autosize=1;strokeColor=none;fillColor=none;" parent="1" vertex="1">
          <mxGeometry x="350" y="150" width="50" height="30" as="geometry" />
        </mxCell>
        <mxCell id="uorP1rLEvrpVJQ6o8FZj-13" style="edgeStyle=orthogonalEdgeStyle;rounded=0;orthogonalLoop=1;jettySize=auto;html=1;entryX=0;entryY=0.5;entryDx=0;entryDy=0;" parent="1" source="uorP1rLEvrpVJQ6o8FZj-14" target="uorP1rLEvrpVJQ6o8FZj-3" edge="1">
          <mxGeometry relative="1" as="geometry" />
        </mxCell>
        <mxCell id="uorP1rLEvrpVJQ6o8FZj-14" value="鼠标键盘" style="rounded=1;whiteSpace=wrap;html=1;" parent="1" vertex="1">
          <mxGeometry x="80" y="135" width="120" height="60" as="geometry" />
        </mxCell>
        <mxCell id="uorP1rLEvrpVJQ6o8FZj-24" style="edgeStyle=orthogonalEdgeStyle;rounded=0;orthogonalLoop=1;jettySize=auto;html=1;entryX=0.25;entryY=1;entryDx=0;entryDy=0;" parent="1" source="uorP1rLEvrpVJQ6o8FZj-15" target="uorP1rLEvrpVJQ6o8FZj-23" edge="1">
          <mxGeometry relative="1" as="geometry" />
        </mxCell>
        <mxCell id="uorP1rLEvrpVJQ6o8FZj-15" value="AX" style="whiteSpace=wrap;html=1;" parent="1" vertex="1">
          <mxGeometry x="120" y="840" width="120" height="60" as="geometry" />
        </mxCell>
        <mxCell id="uorP1rLEvrpVJQ6o8FZj-17" value="数据输入" style="text;html=1;align=center;verticalAlign=middle;resizable=0;points=[];autosize=1;strokeColor=none;fillColor=none;" parent="1" vertex="1">
          <mxGeometry x="30" y="840" width="70" height="30" as="geometry" />
        </mxCell>
        <mxCell id="uorP1rLEvrpVJQ6o8FZj-18" value="" style="edgeStyle=none;orthogonalLoop=1;jettySize=auto;html=1;shape=flexArrow;rounded=1;startSize=8;endSize=8;" parent="1" edge="1">
          <mxGeometry width="100" relative="1" as="geometry">
            <mxPoint x="40" y="870" as="sourcePoint" />
            <mxPoint x="120" y="870" as="targetPoint" />
            <Array as="points" />
          </mxGeometry>
        </mxCell>
        <mxCell id="uorP1rLEvrpVJQ6o8FZj-25" style="edgeStyle=orthogonalEdgeStyle;rounded=0;orthogonalLoop=1;jettySize=auto;html=1;entryX=0.75;entryY=1;entryDx=0;entryDy=0;" parent="1" source="uorP1rLEvrpVJQ6o8FZj-19" target="uorP1rLEvrpVJQ6o8FZj-23" edge="1">
          <mxGeometry relative="1" as="geometry" />
        </mxCell>
        <mxCell id="uorP1rLEvrpVJQ6o8FZj-19" value="CX" style="whiteSpace=wrap;html=1;" parent="1" vertex="1">
          <mxGeometry x="120" y="920" width="120" height="60" as="geometry" />
        </mxCell>
        <mxCell id="uorP1rLEvrpVJQ6o8FZj-20" value="数据输入" style="text;html=1;align=center;verticalAlign=middle;resizable=0;points=[];autosize=1;strokeColor=none;fillColor=none;" parent="1" vertex="1">
          <mxGeometry x="30" y="920" width="70" height="30" as="geometry" />
        </mxCell>
        <mxCell id="uorP1rLEvrpVJQ6o8FZj-21" value="" style="edgeStyle=none;orthogonalLoop=1;jettySize=auto;html=1;shape=flexArrow;rounded=1;startSize=8;endSize=8;" parent="1" edge="1">
          <mxGeometry width="100" relative="1" as="geometry">
            <mxPoint x="40" y="950" as="sourcePoint" />
            <mxPoint x="120" y="950" as="targetPoint" />
            <Array as="points" />
          </mxGeometry>
        </mxCell>
        <mxCell id="uorP1rLEvrpVJQ6o8FZj-26" style="edgeStyle=orthogonalEdgeStyle;rounded=0;orthogonalLoop=1;jettySize=auto;html=1;entryX=0.5;entryY=0;entryDx=0;entryDy=0;" parent="1" source="uorP1rLEvrpVJQ6o8FZj-23" target="uorP1rLEvrpVJQ6o8FZj-15" edge="1">
          <mxGeometry relative="1" as="geometry">
            <Array as="points">
              <mxPoint x="380" y="910" />
              <mxPoint x="380" y="820" />
              <mxPoint x="180" y="820" />
            </Array>
          </mxGeometry>
        </mxCell>
        <mxCell id="uorP1rLEvrpVJQ6o8FZj-23" value="ALU" style="shape=trapezoid;perimeter=trapezoidPerimeter;whiteSpace=wrap;html=1;fixedSize=1;rotation=90;" parent="1" vertex="1">
          <mxGeometry x="250" y="880" width="120" height="60" as="geometry" />
        </mxCell>
        <mxCell id="uorP1rLEvrpVJQ6o8FZj-27" value="结果返回" style="text;html=1;align=center;verticalAlign=middle;resizable=0;points=[];autosize=1;strokeColor=none;fillColor=none;" parent="1" vertex="1">
          <mxGeometry x="385" y="820" width="70" height="30" as="geometry" />
        </mxCell>
        <mxCell id="uorP1rLEvrpVJQ6o8FZj-28" value="中间层程序" style="whiteSpace=wrap;html=1;" parent="1" vertex="1">
          <mxGeometry x="520" y="850" width="120" height="60" as="geometry" />
        </mxCell>
        <mxCell id="uorP1rLEvrpVJQ6o8FZj-29" value="顶层程序" style="whiteSpace=wrap;html=1;" parent="1" vertex="1">
          <mxGeometry x="520" y="790" width="200" height="60" as="geometry" />
        </mxCell>
        <mxCell id="uorP1rLEvrpVJQ6o8FZj-30" value="低层程序" style="whiteSpace=wrap;html=1;" parent="1" vertex="1">
          <mxGeometry x="520" y="910" width="200" height="60" as="geometry" />
        </mxCell>
        <mxCell id="uorP1rLEvrpVJQ6o8FZj-31" value="硬件" style="whiteSpace=wrap;html=1;" parent="1" vertex="1">
          <mxGeometry x="520" y="970" width="200" height="60" as="geometry" />
        </mxCell>
        <mxCell id="uorP1rLEvrpVJQ6o8FZj-32" value="" style="shape=flexArrow;endArrow=classic;startArrow=classic;html=1;rounded=0;" parent="1" edge="1">
          <mxGeometry width="100" height="100" relative="1" as="geometry">
            <mxPoint x="680" y="910" as="sourcePoint" />
            <mxPoint x="680" y="850" as="targetPoint" />
          </mxGeometry>
        </mxCell>
        <mxCell id="uorP1rLEvrpVJQ6o8FZj-33" value="操作系统&lt;div&gt;驱动程序&lt;/div&gt;&lt;div&gt;中间层驱动等&lt;/div&gt;" style="whiteSpace=wrap;html=1;" parent="1" vertex="1">
          <mxGeometry x="40" y="1080" width="150" height="60" as="geometry" />
        </mxCell>
        <mxCell id="uorP1rLEvrpVJQ6o8FZj-34" value="应用程序" style="whiteSpace=wrap;html=1;" parent="1" vertex="1">
          <mxGeometry x="40" y="1020" width="200" height="60" as="geometry" />
        </mxCell>
        <mxCell id="uorP1rLEvrpVJQ6o8FZj-35" value="硬件" style="whiteSpace=wrap;html=1;" parent="1" vertex="1">
          <mxGeometry x="40" y="1140" width="200" height="60" as="geometry" />
        </mxCell>
        <mxCell id="uorP1rLEvrpVJQ6o8FZj-36" value="" style="shape=flexArrow;endArrow=classic;startArrow=classic;html=1;rounded=0;" parent="1" edge="1">
          <mxGeometry width="100" height="100" relative="1" as="geometry">
            <mxPoint x="214.5" y="1140" as="sourcePoint" />
            <mxPoint x="214.5" y="1080" as="targetPoint" />
          </mxGeometry>
        </mxCell>
        <mxCell id="uorP1rLEvrpVJQ6o8FZj-38" value="" style="whiteSpace=wrap;html=1;aspect=fixed;" parent="1" vertex="1">
          <mxGeometry x="80" y="1280" width="80" height="80" as="geometry" />
        </mxCell>
        <mxCell id="uorP1rLEvrpVJQ6o8FZj-40" value="" style="whiteSpace=wrap;html=1;aspect=fixed;" parent="1" vertex="1">
          <mxGeometry x="160" y="1280" width="80" height="80" as="geometry" />
        </mxCell>
        <mxCell id="uorP1rLEvrpVJQ6o8FZj-41" value="" style="whiteSpace=wrap;html=1;aspect=fixed;" parent="1" vertex="1">
          <mxGeometry x="240" y="1280" width="80" height="80" as="geometry" />
        </mxCell>
        <mxCell id="uorP1rLEvrpVJQ6o8FZj-42" value="" style="whiteSpace=wrap;html=1;aspect=fixed;" parent="1" vertex="1">
          <mxGeometry x="320" y="1280" width="80" height="80" as="geometry" />
        </mxCell>
        <mxCell id="uorP1rLEvrpVJQ6o8FZj-43" value="" style="whiteSpace=wrap;html=1;aspect=fixed;" parent="1" vertex="1">
          <mxGeometry x="400" y="1280" width="80" height="80" as="geometry" />
        </mxCell>
        <mxCell id="uorP1rLEvrpVJQ6o8FZj-44" value="" style="whiteSpace=wrap;html=1;aspect=fixed;" parent="1" vertex="1">
          <mxGeometry x="480" y="1280" width="80" height="80" as="geometry" />
        </mxCell>
        <mxCell id="uorP1rLEvrpVJQ6o8FZj-45" value="" style="whiteSpace=wrap;html=1;aspect=fixed;" parent="1" vertex="1">
          <mxGeometry x="560" y="1280" width="80" height="80" as="geometry" />
        </mxCell>
        <mxCell id="uorP1rLEvrpVJQ6o8FZj-46" value="" style="whiteSpace=wrap;html=1;aspect=fixed;" parent="1" vertex="1">
          <mxGeometry x="640" y="1280" width="80" height="80" as="geometry" />
        </mxCell>
        <mxCell id="uorP1rLEvrpVJQ6o8FZj-47" value="" style="whiteSpace=wrap;html=1;aspect=fixed;" parent="1" vertex="1">
          <mxGeometry x="720" y="1280" width="80" height="80" as="geometry" />
        </mxCell>
        <mxCell id="uorP1rLEvrpVJQ6o8FZj-48" value="" style="whiteSpace=wrap;html=1;aspect=fixed;fillColor=#dae8fc;strokeColor=#6c8ebf;" parent="1" vertex="1">
          <mxGeometry x="800" y="1280" width="80" height="80" as="geometry" />
        </mxCell>
        <mxCell id="uorP1rLEvrpVJQ6o8FZj-49" value="" style="whiteSpace=wrap;html=1;aspect=fixed;" parent="1" vertex="1">
          <mxGeometry x="80" y="1360" width="80" height="80" as="geometry" />
        </mxCell>
        <mxCell id="uorP1rLEvrpVJQ6o8FZj-50" value="" style="whiteSpace=wrap;html=1;aspect=fixed;" parent="1" vertex="1">
          <mxGeometry x="160" y="1360" width="80" height="80" as="geometry" />
        </mxCell>
        <mxCell id="uorP1rLEvrpVJQ6o8FZj-51" value="" style="whiteSpace=wrap;html=1;aspect=fixed;" parent="1" vertex="1">
          <mxGeometry x="240" y="1360" width="80" height="80" as="geometry" />
        </mxCell>
        <mxCell id="uorP1rLEvrpVJQ6o8FZj-52" value="" style="whiteSpace=wrap;html=1;aspect=fixed;" parent="1" vertex="1">
          <mxGeometry x="320" y="1360" width="80" height="80" as="geometry" />
        </mxCell>
        <mxCell id="uorP1rLEvrpVJQ6o8FZj-53" value="" style="whiteSpace=wrap;html=1;aspect=fixed;" parent="1" vertex="1">
          <mxGeometry x="400" y="1360" width="80" height="80" as="geometry" />
        </mxCell>
        <mxCell id="uorP1rLEvrpVJQ6o8FZj-54" value="" style="whiteSpace=wrap;html=1;aspect=fixed;" parent="1" vertex="1">
          <mxGeometry x="480" y="1360" width="80" height="80" as="geometry" />
        </mxCell>
        <mxCell id="uorP1rLEvrpVJQ6o8FZj-55" value="" style="whiteSpace=wrap;html=1;aspect=fixed;" parent="1" vertex="1">
          <mxGeometry x="560" y="1360" width="80" height="80" as="geometry" />
        </mxCell>
        <mxCell id="uorP1rLEvrpVJQ6o8FZj-56" value="" style="whiteSpace=wrap;html=1;aspect=fixed;" parent="1" vertex="1">
          <mxGeometry x="640" y="1360" width="80" height="80" as="geometry" />
        </mxCell>
        <mxCell id="uorP1rLEvrpVJQ6o8FZj-57" value="" style="whiteSpace=wrap;html=1;aspect=fixed;" parent="1" vertex="1">
          <mxGeometry x="720" y="1360" width="80" height="80" as="geometry" />
        </mxCell>
        <mxCell id="uorP1rLEvrpVJQ6o8FZj-58" value="" style="whiteSpace=wrap;html=1;aspect=fixed;" parent="1" vertex="1">
          <mxGeometry x="800" y="1360" width="80" height="80" as="geometry" />
        </mxCell>
        <mxCell id="uorP1rLEvrpVJQ6o8FZj-59" value="" style="whiteSpace=wrap;html=1;aspect=fixed;" parent="1" vertex="1">
          <mxGeometry x="80" y="1440" width="80" height="80" as="geometry" />
        </mxCell>
        <mxCell id="uorP1rLEvrpVJQ6o8FZj-60" value="" style="whiteSpace=wrap;html=1;aspect=fixed;" parent="1" vertex="1">
          <mxGeometry x="160" y="1440" width="80" height="80" as="geometry" />
        </mxCell>
        <mxCell id="uorP1rLEvrpVJQ6o8FZj-61" value="" style="whiteSpace=wrap;html=1;aspect=fixed;" parent="1" vertex="1">
          <mxGeometry x="240" y="1440" width="80" height="80" as="geometry" />
        </mxCell>
        <mxCell id="uorP1rLEvrpVJQ6o8FZj-62" value="" style="whiteSpace=wrap;html=1;aspect=fixed;" parent="1" vertex="1">
          <mxGeometry x="320" y="1440" width="80" height="80" as="geometry" />
        </mxCell>
        <mxCell id="uorP1rLEvrpVJQ6o8FZj-63" value="" style="whiteSpace=wrap;html=1;aspect=fixed;" parent="1" vertex="1">
          <mxGeometry x="400" y="1440" width="80" height="80" as="geometry" />
        </mxCell>
        <mxCell id="uorP1rLEvrpVJQ6o8FZj-64" value="" style="whiteSpace=wrap;html=1;aspect=fixed;" parent="1" vertex="1">
          <mxGeometry x="480" y="1440" width="80" height="80" as="geometry" />
        </mxCell>
        <mxCell id="uorP1rLEvrpVJQ6o8FZj-65" value="" style="whiteSpace=wrap;html=1;aspect=fixed;" parent="1" vertex="1">
          <mxGeometry x="560" y="1440" width="80" height="80" as="geometry" />
        </mxCell>
        <mxCell id="uorP1rLEvrpVJQ6o8FZj-66" value="" style="whiteSpace=wrap;html=1;aspect=fixed;" parent="1" vertex="1">
          <mxGeometry x="640" y="1440" width="80" height="80" as="geometry" />
        </mxCell>
        <mxCell id="uorP1rLEvrpVJQ6o8FZj-67" value="" style="whiteSpace=wrap;html=1;aspect=fixed;" parent="1" vertex="1">
          <mxGeometry x="720" y="1440" width="80" height="80" as="geometry" />
        </mxCell>
        <mxCell id="uorP1rLEvrpVJQ6o8FZj-68" value="" style="whiteSpace=wrap;html=1;aspect=fixed;" parent="1" vertex="1">
          <mxGeometry x="800" y="1440" width="80" height="80" as="geometry" />
        </mxCell>
        <mxCell id="uorP1rLEvrpVJQ6o8FZj-69" value="" style="whiteSpace=wrap;html=1;aspect=fixed;" parent="1" vertex="1">
          <mxGeometry x="80" y="1520" width="80" height="80" as="geometry" />
        </mxCell>
        <mxCell id="uorP1rLEvrpVJQ6o8FZj-70" value="" style="whiteSpace=wrap;html=1;aspect=fixed;" parent="1" vertex="1">
          <mxGeometry x="160" y="1520" width="80" height="80" as="geometry" />
        </mxCell>
        <mxCell id="uorP1rLEvrpVJQ6o8FZj-71" value="" style="whiteSpace=wrap;html=1;aspect=fixed;" parent="1" vertex="1">
          <mxGeometry x="240" y="1520" width="80" height="80" as="geometry" />
        </mxCell>
        <mxCell id="uorP1rLEvrpVJQ6o8FZj-72" value="" style="whiteSpace=wrap;html=1;aspect=fixed;" parent="1" vertex="1">
          <mxGeometry x="320" y="1520" width="80" height="80" as="geometry" />
        </mxCell>
        <mxCell id="uorP1rLEvrpVJQ6o8FZj-73" value="" style="whiteSpace=wrap;html=1;aspect=fixed;" parent="1" vertex="1">
          <mxGeometry x="400" y="1520" width="80" height="80" as="geometry" />
        </mxCell>
        <mxCell id="uorP1rLEvrpVJQ6o8FZj-74" value="" style="whiteSpace=wrap;html=1;aspect=fixed;" parent="1" vertex="1">
          <mxGeometry x="480" y="1520" width="80" height="80" as="geometry" />
        </mxCell>
        <mxCell id="uorP1rLEvrpVJQ6o8FZj-75" value="" style="whiteSpace=wrap;html=1;aspect=fixed;" parent="1" vertex="1">
          <mxGeometry x="560" y="1520" width="80" height="80" as="geometry" />
        </mxCell>
        <mxCell id="uorP1rLEvrpVJQ6o8FZj-76" value="" style="whiteSpace=wrap;html=1;aspect=fixed;" parent="1" vertex="1">
          <mxGeometry x="640" y="1520" width="80" height="80" as="geometry" />
        </mxCell>
        <mxCell id="uorP1rLEvrpVJQ6o8FZj-77" value="" style="whiteSpace=wrap;html=1;aspect=fixed;" parent="1" vertex="1">
          <mxGeometry x="720" y="1520" width="80" height="80" as="geometry" />
        </mxCell>
        <mxCell id="uorP1rLEvrpVJQ6o8FZj-78" value="" style="whiteSpace=wrap;html=1;aspect=fixed;" parent="1" vertex="1">
          <mxGeometry x="800" y="1520" width="80" height="80" as="geometry" />
        </mxCell>
        <mxCell id="uorP1rLEvrpVJQ6o8FZj-79" value="" style="whiteSpace=wrap;html=1;aspect=fixed;" parent="1" vertex="1">
          <mxGeometry x="80" y="1600" width="80" height="80" as="geometry" />
        </mxCell>
        <mxCell id="uorP1rLEvrpVJQ6o8FZj-80" value="" style="whiteSpace=wrap;html=1;aspect=fixed;" parent="1" vertex="1">
          <mxGeometry x="160" y="1600" width="80" height="80" as="geometry" />
        </mxCell>
        <mxCell id="uorP1rLEvrpVJQ6o8FZj-81" value="" style="whiteSpace=wrap;html=1;aspect=fixed;" parent="1" vertex="1">
          <mxGeometry x="240" y="1600" width="80" height="80" as="geometry" />
        </mxCell>
        <mxCell id="uorP1rLEvrpVJQ6o8FZj-82" value="" style="whiteSpace=wrap;html=1;aspect=fixed;" parent="1" vertex="1">
          <mxGeometry x="320" y="1600" width="80" height="80" as="geometry" />
        </mxCell>
        <mxCell id="uorP1rLEvrpVJQ6o8FZj-83" value="" style="whiteSpace=wrap;html=1;aspect=fixed;" parent="1" vertex="1">
          <mxGeometry x="400" y="1600" width="80" height="80" as="geometry" />
        </mxCell>
        <mxCell id="uorP1rLEvrpVJQ6o8FZj-84" value="" style="whiteSpace=wrap;html=1;aspect=fixed;" parent="1" vertex="1">
          <mxGeometry x="480" y="1600" width="80" height="80" as="geometry" />
        </mxCell>
        <mxCell id="uorP1rLEvrpVJQ6o8FZj-85" value="" style="whiteSpace=wrap;html=1;aspect=fixed;" parent="1" vertex="1">
          <mxGeometry x="560" y="1600" width="80" height="80" as="geometry" />
        </mxCell>
        <mxCell id="uorP1rLEvrpVJQ6o8FZj-86" value="" style="whiteSpace=wrap;html=1;aspect=fixed;" parent="1" vertex="1">
          <mxGeometry x="640" y="1600" width="80" height="80" as="geometry" />
        </mxCell>
        <mxCell id="uorP1rLEvrpVJQ6o8FZj-87" value="" style="whiteSpace=wrap;html=1;aspect=fixed;" parent="1" vertex="1">
          <mxGeometry x="720" y="1600" width="80" height="80" as="geometry" />
        </mxCell>
        <mxCell id="uorP1rLEvrpVJQ6o8FZj-88" value="" style="whiteSpace=wrap;html=1;aspect=fixed;" parent="1" vertex="1">
          <mxGeometry x="800" y="1600" width="80" height="80" as="geometry" />
        </mxCell>
        <mxCell id="uorP1rLEvrpVJQ6o8FZj-89" value="" style="whiteSpace=wrap;html=1;aspect=fixed;" parent="1" vertex="1">
          <mxGeometry x="80" y="1680" width="80" height="80" as="geometry" />
        </mxCell>
        <mxCell id="uorP1rLEvrpVJQ6o8FZj-90" value="" style="whiteSpace=wrap;html=1;aspect=fixed;" parent="1" vertex="1">
          <mxGeometry x="160" y="1680" width="80" height="80" as="geometry" />
        </mxCell>
        <mxCell id="uorP1rLEvrpVJQ6o8FZj-91" value="" style="whiteSpace=wrap;html=1;aspect=fixed;" parent="1" vertex="1">
          <mxGeometry x="240" y="1680" width="80" height="80" as="geometry" />
        </mxCell>
        <mxCell id="uorP1rLEvrpVJQ6o8FZj-92" value="" style="whiteSpace=wrap;html=1;aspect=fixed;" parent="1" vertex="1">
          <mxGeometry x="320" y="1680" width="80" height="80" as="geometry" />
        </mxCell>
        <mxCell id="uorP1rLEvrpVJQ6o8FZj-93" value="" style="whiteSpace=wrap;html=1;aspect=fixed;" parent="1" vertex="1">
          <mxGeometry x="400" y="1680" width="80" height="80" as="geometry" />
        </mxCell>
        <mxCell id="uorP1rLEvrpVJQ6o8FZj-94" value="" style="whiteSpace=wrap;html=1;aspect=fixed;" parent="1" vertex="1">
          <mxGeometry x="480" y="1680" width="80" height="80" as="geometry" />
        </mxCell>
        <mxCell id="uorP1rLEvrpVJQ6o8FZj-95" value="" style="whiteSpace=wrap;html=1;aspect=fixed;" parent="1" vertex="1">
          <mxGeometry x="560" y="1680" width="80" height="80" as="geometry" />
        </mxCell>
        <mxCell id="uorP1rLEvrpVJQ6o8FZj-96" value="" style="whiteSpace=wrap;html=1;aspect=fixed;" parent="1" vertex="1">
          <mxGeometry x="640" y="1680" width="80" height="80" as="geometry" />
        </mxCell>
        <mxCell id="uorP1rLEvrpVJQ6o8FZj-97" value="" style="whiteSpace=wrap;html=1;aspect=fixed;" parent="1" vertex="1">
          <mxGeometry x="720" y="1680" width="80" height="80" as="geometry" />
        </mxCell>
        <mxCell id="uorP1rLEvrpVJQ6o8FZj-98" value="" style="whiteSpace=wrap;html=1;aspect=fixed;" parent="1" vertex="1">
          <mxGeometry x="800" y="1680" width="80" height="80" as="geometry" />
        </mxCell>
        <mxCell id="uorP1rLEvrpVJQ6o8FZj-99" value="" style="whiteSpace=wrap;html=1;aspect=fixed;" parent="1" vertex="1">
          <mxGeometry x="80" y="1760" width="80" height="80" as="geometry" />
        </mxCell>
        <mxCell id="uorP1rLEvrpVJQ6o8FZj-100" value="" style="whiteSpace=wrap;html=1;aspect=fixed;" parent="1" vertex="1">
          <mxGeometry x="160" y="1760" width="80" height="80" as="geometry" />
        </mxCell>
        <mxCell id="uorP1rLEvrpVJQ6o8FZj-101" value="" style="whiteSpace=wrap;html=1;aspect=fixed;" parent="1" vertex="1">
          <mxGeometry x="240" y="1760" width="80" height="80" as="geometry" />
        </mxCell>
        <mxCell id="uorP1rLEvrpVJQ6o8FZj-102" value="" style="whiteSpace=wrap;html=1;aspect=fixed;" parent="1" vertex="1">
          <mxGeometry x="320" y="1760" width="80" height="80" as="geometry" />
        </mxCell>
        <mxCell id="uorP1rLEvrpVJQ6o8FZj-103" value="" style="whiteSpace=wrap;html=1;aspect=fixed;" parent="1" vertex="1">
          <mxGeometry x="400" y="1760" width="80" height="80" as="geometry" />
        </mxCell>
        <mxCell id="uorP1rLEvrpVJQ6o8FZj-104" value="" style="whiteSpace=wrap;html=1;aspect=fixed;" parent="1" vertex="1">
          <mxGeometry x="480" y="1760" width="80" height="80" as="geometry" />
        </mxCell>
        <mxCell id="uorP1rLEvrpVJQ6o8FZj-105" value="" style="whiteSpace=wrap;html=1;aspect=fixed;" parent="1" vertex="1">
          <mxGeometry x="560" y="1760" width="80" height="80" as="geometry" />
        </mxCell>
        <mxCell id="uorP1rLEvrpVJQ6o8FZj-106" value="" style="whiteSpace=wrap;html=1;aspect=fixed;" parent="1" vertex="1">
          <mxGeometry x="640" y="1760" width="80" height="80" as="geometry" />
        </mxCell>
        <mxCell id="uorP1rLEvrpVJQ6o8FZj-107" value="" style="whiteSpace=wrap;html=1;aspect=fixed;" parent="1" vertex="1">
          <mxGeometry x="720" y="1760" width="80" height="80" as="geometry" />
        </mxCell>
        <mxCell id="uorP1rLEvrpVJQ6o8FZj-108" value="" style="whiteSpace=wrap;html=1;aspect=fixed;" parent="1" vertex="1">
          <mxGeometry x="800" y="1760" width="80" height="80" as="geometry" />
        </mxCell>
        <mxCell id="uorP1rLEvrpVJQ6o8FZj-109" value="" style="whiteSpace=wrap;html=1;aspect=fixed;" parent="1" vertex="1">
          <mxGeometry x="80" y="1840" width="80" height="80" as="geometry" />
        </mxCell>
        <mxCell id="uorP1rLEvrpVJQ6o8FZj-110" value="" style="whiteSpace=wrap;html=1;aspect=fixed;" parent="1" vertex="1">
          <mxGeometry x="160" y="1840" width="80" height="80" as="geometry" />
        </mxCell>
        <mxCell id="uorP1rLEvrpVJQ6o8FZj-111" value="" style="whiteSpace=wrap;html=1;aspect=fixed;" parent="1" vertex="1">
          <mxGeometry x="240" y="1840" width="80" height="80" as="geometry" />
        </mxCell>
        <mxCell id="uorP1rLEvrpVJQ6o8FZj-112" value="" style="whiteSpace=wrap;html=1;aspect=fixed;" parent="1" vertex="1">
          <mxGeometry x="320" y="1840" width="80" height="80" as="geometry" />
        </mxCell>
        <mxCell id="uorP1rLEvrpVJQ6o8FZj-113" value="" style="whiteSpace=wrap;html=1;aspect=fixed;" parent="1" vertex="1">
          <mxGeometry x="400" y="1840" width="80" height="80" as="geometry" />
        </mxCell>
        <mxCell id="uorP1rLEvrpVJQ6o8FZj-114" value="" style="whiteSpace=wrap;html=1;aspect=fixed;" parent="1" vertex="1">
          <mxGeometry x="480" y="1840" width="80" height="80" as="geometry" />
        </mxCell>
        <mxCell id="uorP1rLEvrpVJQ6o8FZj-115" value="" style="whiteSpace=wrap;html=1;aspect=fixed;" parent="1" vertex="1">
          <mxGeometry x="560" y="1840" width="80" height="80" as="geometry" />
        </mxCell>
        <mxCell id="uorP1rLEvrpVJQ6o8FZj-116" value="" style="whiteSpace=wrap;html=1;aspect=fixed;" parent="1" vertex="1">
          <mxGeometry x="640" y="1840" width="80" height="80" as="geometry" />
        </mxCell>
        <mxCell id="uorP1rLEvrpVJQ6o8FZj-117" value="" style="whiteSpace=wrap;html=1;aspect=fixed;" parent="1" vertex="1">
          <mxGeometry x="720" y="1840" width="80" height="80" as="geometry" />
        </mxCell>
        <mxCell id="uorP1rLEvrpVJQ6o8FZj-118" value="" style="whiteSpace=wrap;html=1;aspect=fixed;" parent="1" vertex="1">
          <mxGeometry x="800" y="1840" width="80" height="80" as="geometry" />
        </mxCell>
        <mxCell id="uorP1rLEvrpVJQ6o8FZj-119" value="" style="whiteSpace=wrap;html=1;aspect=fixed;" parent="1" vertex="1">
          <mxGeometry x="80" y="1920" width="80" height="80" as="geometry" />
        </mxCell>
        <mxCell id="uorP1rLEvrpVJQ6o8FZj-120" value="" style="whiteSpace=wrap;html=1;aspect=fixed;" parent="1" vertex="1">
          <mxGeometry x="160" y="1920" width="80" height="80" as="geometry" />
        </mxCell>
        <mxCell id="uorP1rLEvrpVJQ6o8FZj-121" value="" style="whiteSpace=wrap;html=1;aspect=fixed;" parent="1" vertex="1">
          <mxGeometry x="240" y="1920" width="80" height="80" as="geometry" />
        </mxCell>
        <mxCell id="uorP1rLEvrpVJQ6o8FZj-122" value="" style="whiteSpace=wrap;html=1;aspect=fixed;" parent="1" vertex="1">
          <mxGeometry x="320" y="1920" width="80" height="80" as="geometry" />
        </mxCell>
        <mxCell id="uorP1rLEvrpVJQ6o8FZj-123" value="" style="whiteSpace=wrap;html=1;aspect=fixed;" parent="1" vertex="1">
          <mxGeometry x="400" y="1920" width="80" height="80" as="geometry" />
        </mxCell>
        <mxCell id="uorP1rLEvrpVJQ6o8FZj-124" value="" style="whiteSpace=wrap;html=1;aspect=fixed;" parent="1" vertex="1">
          <mxGeometry x="480" y="1920" width="80" height="80" as="geometry" />
        </mxCell>
        <mxCell id="uorP1rLEvrpVJQ6o8FZj-125" value="" style="whiteSpace=wrap;html=1;aspect=fixed;" parent="1" vertex="1">
          <mxGeometry x="560" y="1920" width="80" height="80" as="geometry" />
        </mxCell>
        <mxCell id="uorP1rLEvrpVJQ6o8FZj-126" value="" style="whiteSpace=wrap;html=1;aspect=fixed;" parent="1" vertex="1">
          <mxGeometry x="640" y="1920" width="80" height="80" as="geometry" />
        </mxCell>
        <mxCell id="uorP1rLEvrpVJQ6o8FZj-127" value="" style="whiteSpace=wrap;html=1;aspect=fixed;" parent="1" vertex="1">
          <mxGeometry x="720" y="1920" width="80" height="80" as="geometry" />
        </mxCell>
        <mxCell id="uorP1rLEvrpVJQ6o8FZj-128" value="" style="whiteSpace=wrap;html=1;aspect=fixed;" parent="1" vertex="1">
          <mxGeometry x="800" y="1920" width="80" height="80" as="geometry" />
        </mxCell>
        <mxCell id="uorP1rLEvrpVJQ6o8FZj-129" value="" style="whiteSpace=wrap;html=1;aspect=fixed;fillColor=#f8cecc;strokeColor=#b85450;" parent="1" vertex="1">
          <mxGeometry x="80" y="2000" width="80" height="80" as="geometry" />
        </mxCell>
        <mxCell id="uorP1rLEvrpVJQ6o8FZj-130" value="" style="whiteSpace=wrap;html=1;aspect=fixed;" parent="1" vertex="1">
          <mxGeometry x="160" y="2000" width="80" height="80" as="geometry" />
        </mxCell>
        <mxCell id="uorP1rLEvrpVJQ6o8FZj-131" value="" style="whiteSpace=wrap;html=1;aspect=fixed;" parent="1" vertex="1">
          <mxGeometry x="240" y="2000" width="80" height="80" as="geometry" />
        </mxCell>
        <mxCell id="uorP1rLEvrpVJQ6o8FZj-132" value="" style="whiteSpace=wrap;html=1;aspect=fixed;" parent="1" vertex="1">
          <mxGeometry x="320" y="2000" width="80" height="80" as="geometry" />
        </mxCell>
        <mxCell id="uorP1rLEvrpVJQ6o8FZj-133" value="" style="whiteSpace=wrap;html=1;aspect=fixed;" parent="1" vertex="1">
          <mxGeometry x="400" y="2000" width="80" height="80" as="geometry" />
        </mxCell>
        <mxCell id="uorP1rLEvrpVJQ6o8FZj-134" value="" style="whiteSpace=wrap;html=1;aspect=fixed;" parent="1" vertex="1">
          <mxGeometry x="480" y="2000" width="80" height="80" as="geometry" />
        </mxCell>
        <mxCell id="uorP1rLEvrpVJQ6o8FZj-135" value="" style="whiteSpace=wrap;html=1;aspect=fixed;" parent="1" vertex="1">
          <mxGeometry x="560" y="2000" width="80" height="80" as="geometry" />
        </mxCell>
        <mxCell id="uorP1rLEvrpVJQ6o8FZj-136" value="" style="whiteSpace=wrap;html=1;aspect=fixed;" parent="1" vertex="1">
          <mxGeometry x="640" y="2000" width="80" height="80" as="geometry" />
        </mxCell>
        <mxCell id="uorP1rLEvrpVJQ6o8FZj-137" value="" style="whiteSpace=wrap;html=1;aspect=fixed;" parent="1" vertex="1">
          <mxGeometry x="720" y="2000" width="80" height="80" as="geometry" />
        </mxCell>
        <mxCell id="uorP1rLEvrpVJQ6o8FZj-138" value="" style="whiteSpace=wrap;html=1;aspect=fixed;" parent="1" vertex="1">
          <mxGeometry x="800" y="2000" width="80" height="80" as="geometry" />
        </mxCell>
        <mxCell id="uorP1rLEvrpVJQ6o8FZj-139" value="" style="shape=image;verticalLabelPosition=bottom;labelBackgroundColor=default;verticalAlign=top;aspect=fixed;imageAspect=0;image=data:image/svg+xml,PHN2ZyB4bWxuczp4bGluaz0iaHR0cDovL3d3dy53My5vcmcvMTk5OS94bGluayIgeG1sbnM9Imh0dHA6Ly93d3cudzMub3JnLzIwMDAvc3ZnIiB4bWw6c3BhY2U9InByZXNlcnZlIiB2aWV3Qm94PSIwIDAgNjQgNjQiIHZlcnNpb249IjEuMSIgc3R5bGU9ImVuYWJsZS1iYWNrZ3JvdW5kOm5ldyAwIDAgNjQgNjQ7Ij48ZyBpZD0iTGF5ZXJfMiIvPjxnIGlkPSJMYXllcl8zIi8+PGcgaWQ9IkxheWVyXzQiLz48ZyBpZD0iTGF5ZXJfNSIvPjxnIGlkPSJMYXllcl82Ii8+PGcgaWQ9IkxheWVyXzciLz48ZyBpZD0iTGF5ZXJfOCIvPjxnIGlkPSJMYXllcl85Ii8+PGcgaWQ9IkxheWVyXzEwIi8+PGcgaWQ9IkxheWVyXzExIi8+PGcgaWQ9IkxheWVyXzEyIi8+PGcgaWQ9IkxheWVyXzEzIi8+PGcgaWQ9IkxheWVyXzE1Ii8+PGcgaWQ9IkxheWVyXzE2Ii8+PGcgaWQ9IkxheWVyXzE3Ii8+PGcgaWQ9IkxheWVyXzE4Ii8+PGcgaWQ9IkxheWVyXzE5Ii8+PGcgaWQ9IkxheWVyXzIwIi8+PGcgaWQ9IkxheWVyXzIxIi8+PGcgaWQ9IkxheWVyXzIyIi8+PGcgaWQ9IkxheWVyXzIzIi8+PGcgaWQ9IkxheWVyXzI0Ii8+PGcgaWQ9IkxheWVyXzI1Ij48Zz48cGF0aCBkPSJNMTEuNywzOC4yYy0xLjgsMC0zLjIsMS40LTMuMiwzLjJjMCwxLjgsMS40LDMuMiwzLjIsMy4yczMuMi0xLjQsMy4yLTMuMkMxNC45LDM5LjYsMTMuNSwzOC4yLDExLjcsMzguMnogTTExLjcsNDIuNCAgICBjLTAuNiwwLTEtMC40LTEtMWMwLTAuNiwwLjQtMSwxLTFjMC42LDAsMSwwLjQsMSwxQzEyLjcsNDEuOSwxMi4zLDQyLjQsMTEuNyw0Mi40eiIvPjxwYXRoIGQ9Ik00OC4zLDM4LjJjLTEuOCwwLTMuMiwxLjQtMy4yLDMuMmMwLDEuOCwxLjQsMy4yLDMuMiwzLjJzMy4yLTEuNCwzLjItMy4yQzUxLjUsMzkuNiw1MC4xLDM4LjIsNDguMywzOC4yeiBNNDguMyw0Mi40ICAgIGMtMC42LDAtMS0wLjQtMS0xYzAtMC42LDAuNC0xLDEtMXMxLDAuNCwxLDFDNDkuMyw0MS45LDQ4LjksNDIuNCw0OC4zLDQyLjR6Ii8+PHBhdGggZD0iTTYxLjMsMjQuOWgtMC42Yy0wLjctNC4yLTUuMy05LjYtMTItOS42SDI2Yy02LDAtMTEuMiw5LjEtMTIuNSwxMS42SDcuN2MtNC4zLDAtNy43LDMuNS03LjcsNy43djUuNmMwLDEuMiwxLDIuMiwyLjIsMi4yICAgIGgyLjNjMC41LDMuNSwzLjYsNi4yLDcuMiw2LjJzNi43LTIuNyw3LjItNi4yaDIyLjJjMC41LDMuNSwzLjYsNi4yLDcuMiw2LjJjMy42LDAsNi43LTIuNyw3LjItNi4yaDMuMWMxLjIsMCwyLjItMSwyLjItMi4yVjM1ICAgIGgwLjVjMS41LDAsMi43LTEuMiwyLjctMi43di00LjdDNjQsMjYuMSw2Mi44LDI0LjksNjEuMywyNC45eiBNMTEuNyw0Ni40Yy0yLjgsMC01LjEtMi4zLTUuMS01LjFjMC0yLjgsMi4zLTUuMSw1LjEtNS4xICAgIHM1LjEsMi4zLDUuMSw1LjFDMTYuOCw0NC4yLDE0LjUsNDYuNCwxMS43LDQ2LjR6IE00OC4zLDQ2LjRjLTIuOCwwLTUuMS0yLjMtNS4xLTUuMWMwLTIuOCwyLjMtNS4xLDUuMS01LjFjMi44LDAsNS4xLDIuMyw1LjEsNS4xICAgIEM1My40LDQ0LjIsNTEuMSw0Ni40LDQ4LjMsNDYuNHogTTU4LjYsNDAuM2gtMy4xYy0wLjUtMy41LTMuNi02LjItNy4yLTYuMmMtMy42LDAtNi43LDIuNy03LjIsNi4ySDE4LjljLTAuNS0zLjUtMy42LTYuMi03LjItNi4yICAgIHMtNi43LDIuNy03LjIsNi4ySDIuMnYtNS42YzAtMywyLjUtNS41LDUuNS01LjVoNi40YzAuNCwwLDAuOC0wLjIsMS0wLjZjMS41LTMuMSw2LjQtMTEsMTAuOS0xMWgyMi42YzYuMiwwLDkuOSw1LjUsOS45LDguNXY3LjkgICAgVjQwLjN6IE02MS44LDMyLjNjMCwwLjMtMC4yLDAuNS0wLjUsMC41aC0wLjV2LTUuN2gwLjVjMC4zLDAsMC41LDAuMiwwLjUsMC41VjMyLjN6Ii8+PHBhdGggZD0iTTM1LjksMTkuOWgtNy40Yy0yLjksMC01LjcsMS40LTcuMiwzLjhsLTIuNSwzLjhjLTAuMiwwLjMtMC4yLDAuOCwwLDEuMWMwLjIsMC40LDAuNiwwLjYsMSwwLjZoMTYuMSAgICBjMC42LDAsMS4xLTAuNSwxLjEtMS4xVjIxQzM3LDIwLjQsMzYuNSwxOS45LDM1LjksMTkuOXogTTM0LjgsMjdoLTEzbDEuNC0yLjFjMS4xLTEuNywzLjEtMi44LDUuMy0yLjhoNi4zVjI3eiIvPjxwYXRoIGQ9Ik00Ni44LDE5LjloLTYuM2MtMC42LDAtMS4xLDAuNS0xLjEsMS4xdjcuMWMwLDAuNiwwLjUsMS4xLDEuMSwxLjFoMTMuOWMwLjYsMCwxLjEtMC41LDEuMS0xLjEgICAgQzU1LjYsMjMuNiw1MS43LDE5LjksNDYuOCwxOS45eiBNNDEuNywyN3YtNC45aDUuMmMzLjIsMCw1LjksMi4xLDYuNCw0LjlINDEuN3oiLz48L2c+PC9nPjxnIGlkPSJMYXllcl8yNiIvPjxnIGlkPSJMYXllcl8yNyIvPjwvc3ZnPg==;" parent="1" vertex="1">
          <mxGeometry x="90" y="2008" width="64" height="64" as="geometry" />
        </mxCell>
        <mxCell id="uorP1rLEvrpVJQ6o8FZj-142" value="" style="edgeStyle=orthogonalEdgeStyle;rounded=0;orthogonalLoop=1;jettySize=auto;html=1;" parent="1" source="uorP1rLEvrpVJQ6o8FZj-140" target="uorP1rLEvrpVJQ6o8FZj-141" edge="1">
          <mxGeometry relative="1" as="geometry" />
        </mxCell>
        <mxCell id="uorP1rLEvrpVJQ6o8FZj-140" value="开始" style="rounded=1;whiteSpace=wrap;html=1;" parent="1" vertex="1">
          <mxGeometry x="1000" y="1280" width="120" height="60" as="geometry" />
        </mxCell>
        <mxCell id="uorP1rLEvrpVJQ6o8FZj-144" value="" style="edgeStyle=orthogonalEdgeStyle;rounded=0;orthogonalLoop=1;jettySize=auto;html=1;" parent="1" source="uorP1rLEvrpVJQ6o8FZj-141" target="uorP1rLEvrpVJQ6o8FZj-143" edge="1">
          <mxGeometry relative="1" as="geometry" />
        </mxCell>
        <mxCell id="uorP1rLEvrpVJQ6o8FZj-141" value="前进10格" style="whiteSpace=wrap;html=1;" parent="1" vertex="1">
          <mxGeometry x="1160" y="1280" width="120" height="60" as="geometry" />
        </mxCell>
        <mxCell id="uorP1rLEvrpVJQ6o8FZj-146" value="" style="edgeStyle=orthogonalEdgeStyle;rounded=0;orthogonalLoop=1;jettySize=auto;html=1;" parent="1" source="uorP1rLEvrpVJQ6o8FZj-143" target="uorP1rLEvrpVJQ6o8FZj-145" edge="1">
          <mxGeometry relative="1" as="geometry" />
        </mxCell>
        <mxCell id="uorP1rLEvrpVJQ6o8FZj-143" value="向右旋转90度" style="whiteSpace=wrap;html=1;" parent="1" vertex="1">
          <mxGeometry x="1320" y="1280" width="120" height="60" as="geometry" />
        </mxCell>
        <mxCell id="uorP1rLEvrpVJQ6o8FZj-148" value="" style="edgeStyle=orthogonalEdgeStyle;rounded=0;orthogonalLoop=1;jettySize=auto;html=1;" parent="1" source="uorP1rLEvrpVJQ6o8FZj-145" target="uorP1rLEvrpVJQ6o8FZj-147" edge="1">
          <mxGeometry relative="1" as="geometry" />
        </mxCell>
        <mxCell id="uorP1rLEvrpVJQ6o8FZj-145" value="前进10格" style="whiteSpace=wrap;html=1;" parent="1" vertex="1">
          <mxGeometry x="1320" y="1370" width="120" height="60" as="geometry" />
        </mxCell>
        <mxCell id="uorP1rLEvrpVJQ6o8FZj-147" value="结束" style="rounded=1;whiteSpace=wrap;html=1;" parent="1" vertex="1">
          <mxGeometry x="1160" y="1370" width="120" height="60" as="geometry" />
        </mxCell>
        <mxCell id="uorP1rLEvrpVJQ6o8FZj-149" value="" style="ellipse;whiteSpace=wrap;html=1;" parent="1" vertex="1">
          <mxGeometry x="830" y="140" width="510" height="320" as="geometry" />
        </mxCell>
        <mxCell id="uorP1rLEvrpVJQ6o8FZj-150" value="数据" style="ellipse;whiteSpace=wrap;html=1;" parent="1" vertex="1">
          <mxGeometry x="900" y="210" width="130" height="60" as="geometry" />
        </mxCell>
        <mxCell id="uorP1rLEvrpVJQ6o8FZj-151" value="数据" style="ellipse;whiteSpace=wrap;html=1;" parent="1" vertex="1">
          <mxGeometry x="1010" y="160" width="130" height="60" as="geometry" />
        </mxCell>
        <mxCell id="uorP1rLEvrpVJQ6o8FZj-152" value="数据" style="ellipse;whiteSpace=wrap;html=1;" parent="1" vertex="1">
          <mxGeometry x="1050" y="230" width="130" height="60" as="geometry" />
        </mxCell>
        <mxCell id="uorP1rLEvrpVJQ6o8FZj-153" value="数据" style="ellipse;whiteSpace=wrap;html=1;" parent="1" vertex="1">
          <mxGeometry x="910" y="310" width="130" height="60" as="geometry" />
        </mxCell>
        <mxCell id="uorP1rLEvrpVJQ6o8FZj-154" value="数据" style="ellipse;whiteSpace=wrap;html=1;" parent="1" vertex="1">
          <mxGeometry x="1050" y="370" width="130" height="60" as="geometry" />
        </mxCell>
        <mxCell id="uorP1rLEvrpVJQ6o8FZj-155" value="数据" style="ellipse;whiteSpace=wrap;html=1;" parent="1" vertex="1">
          <mxGeometry x="1140" y="300" width="130" height="60" as="geometry" />
        </mxCell>
        <mxCell id="uorP1rLEvrpVJQ6o8FZj-156" value="" style="whiteSpace=wrap;html=1;" parent="1" vertex="1">
          <mxGeometry x="840" y="560" width="120" height="220" as="geometry" />
        </mxCell>
        <mxCell id="uorP1rLEvrpVJQ6o8FZj-157" value="这里是出入口" style="text;html=1;align=center;verticalAlign=middle;resizable=0;points=[];autosize=1;strokeColor=none;fillColor=none;" parent="1" vertex="1">
          <mxGeometry x="850" y="530" width="100" height="30" as="geometry" />
        </mxCell>
        <mxCell id="uorP1rLEvrpVJQ6o8FZj-158" value="堆栈" style="text;html=1;align=center;verticalAlign=middle;resizable=0;points=[];autosize=1;strokeColor=none;fillColor=none;" parent="1" vertex="1">
          <mxGeometry x="780" y="650" width="50" height="30" as="geometry" />
        </mxCell>
        <mxCell id="uorP1rLEvrpVJQ6o8FZj-160" value="" style="whiteSpace=wrap;html=1;" parent="1" vertex="1">
          <mxGeometry x="1030" y="560" width="120" height="220" as="geometry" />
        </mxCell>
        <mxCell id="uorP1rLEvrpVJQ6o8FZj-161" value="这里是出入口" style="text;html=1;align=center;verticalAlign=middle;resizable=0;points=[];autosize=1;strokeColor=none;fillColor=none;" parent="1" vertex="1">
          <mxGeometry x="1040" y="530" width="100" height="30" as="geometry" />
        </mxCell>
        <mxCell id="uorP1rLEvrpVJQ6o8FZj-162" value="数据A" style="whiteSpace=wrap;html=1;" parent="1" vertex="1">
          <mxGeometry x="1030" y="560" width="120" height="60" as="geometry" />
        </mxCell>
        <mxCell id="uorP1rLEvrpVJQ6o8FZj-163" value="" style="whiteSpace=wrap;html=1;" parent="1" vertex="1">
          <mxGeometry x="1220" y="560" width="120" height="220" as="geometry" />
        </mxCell>
        <mxCell id="uorP1rLEvrpVJQ6o8FZj-164" value="这里是出入口" style="text;html=1;align=center;verticalAlign=middle;resizable=0;points=[];autosize=1;strokeColor=none;fillColor=none;" parent="1" vertex="1">
          <mxGeometry x="1230" y="530" width="100" height="30" as="geometry" />
        </mxCell>
        <mxCell id="uorP1rLEvrpVJQ6o8FZj-165" value="数据A" style="whiteSpace=wrap;html=1;" parent="1" vertex="1">
          <mxGeometry x="1220" y="620" width="120" height="60" as="geometry" />
        </mxCell>
        <mxCell id="uorP1rLEvrpVJQ6o8FZj-166" value="入栈&lt;div&gt;推入&lt;/div&gt;&lt;div&gt;数据A&lt;/div&gt;" style="text;html=1;align=center;verticalAlign=middle;resizable=0;points=[];autosize=1;strokeColor=none;fillColor=none;" parent="1" vertex="1">
          <mxGeometry x="965" y="630" width="60" height="60" as="geometry" />
        </mxCell>
        <mxCell id="uorP1rLEvrpVJQ6o8FZj-167" value="入栈&lt;div&gt;推入&lt;/div&gt;&lt;div&gt;数据B&lt;/div&gt;" style="text;html=1;align=center;verticalAlign=middle;resizable=0;points=[];autosize=1;strokeColor=none;fillColor=none;" parent="1" vertex="1">
          <mxGeometry x="1155" y="635" width="60" height="60" as="geometry" />
        </mxCell>
        <mxCell id="uorP1rLEvrpVJQ6o8FZj-168" value="数据B" style="whiteSpace=wrap;html=1;" parent="1" vertex="1">
          <mxGeometry x="1220" y="560" width="120" height="60" as="geometry" />
        </mxCell>
        <mxCell id="uorP1rLEvrpVJQ6o8FZj-169" value="" style="whiteSpace=wrap;html=1;" parent="1" vertex="1">
          <mxGeometry x="840" y="820" width="120" height="220" as="geometry" />
        </mxCell>
        <mxCell id="uorP1rLEvrpVJQ6o8FZj-170" value="这里是出入口" style="text;html=1;align=center;verticalAlign=middle;resizable=0;points=[];autosize=1;strokeColor=none;fillColor=none;" parent="1" vertex="1">
          <mxGeometry x="850" y="790" width="100" height="30" as="geometry" />
        </mxCell>
        <mxCell id="uorP1rLEvrpVJQ6o8FZj-171" value="数据B" style="whiteSpace=wrap;html=1;" parent="1" vertex="1">
          <mxGeometry x="840" y="880" width="120" height="60" as="geometry" />
        </mxCell>
        <mxCell id="uorP1rLEvrpVJQ6o8FZj-172" value="入栈&lt;div&gt;推入&lt;/div&gt;&lt;div&gt;数据C&lt;/div&gt;" style="text;html=1;align=center;verticalAlign=middle;resizable=0;points=[];autosize=1;strokeColor=none;fillColor=none;" parent="1" vertex="1">
          <mxGeometry x="775" y="895" width="60" height="60" as="geometry" />
        </mxCell>
        <mxCell id="uorP1rLEvrpVJQ6o8FZj-173" value="数据C" style="whiteSpace=wrap;html=1;" parent="1" vertex="1">
          <mxGeometry x="840" y="820" width="120" height="60" as="geometry" />
        </mxCell>
        <mxCell id="uorP1rLEvrpVJQ6o8FZj-174" value="数据A" style="whiteSpace=wrap;html=1;" parent="1" vertex="1">
          <mxGeometry x="840" y="940" width="120" height="60" as="geometry" />
        </mxCell>
        <mxCell id="uorP1rLEvrpVJQ6o8FZj-180" value="" style="whiteSpace=wrap;html=1;" parent="1" vertex="1">
          <mxGeometry x="1030" y="820" width="120" height="220" as="geometry" />
        </mxCell>
        <mxCell id="uorP1rLEvrpVJQ6o8FZj-181" value="这里是出入口" style="text;html=1;align=center;verticalAlign=middle;resizable=0;points=[];autosize=1;strokeColor=none;fillColor=none;" parent="1" vertex="1">
          <mxGeometry x="1040" y="790" width="100" height="30" as="geometry" />
        </mxCell>
        <mxCell id="uorP1rLEvrpVJQ6o8FZj-182" value="数据A" style="whiteSpace=wrap;html=1;" parent="1" vertex="1">
          <mxGeometry x="1030" y="880" width="120" height="60" as="geometry" />
        </mxCell>
        <mxCell id="uorP1rLEvrpVJQ6o8FZj-183" value="数据B" style="whiteSpace=wrap;html=1;" parent="1" vertex="1">
          <mxGeometry x="1030" y="820" width="120" height="60" as="geometry" />
        </mxCell>
        <mxCell id="uorP1rLEvrpVJQ6o8FZj-184" value="弹出&lt;div&gt;取出&lt;/div&gt;&lt;div&gt;数据C&lt;/div&gt;&lt;div&gt;被取出&lt;/div&gt;" style="text;html=1;align=center;verticalAlign=middle;resizable=0;points=[];autosize=1;strokeColor=none;fillColor=none;" parent="1" vertex="1">
          <mxGeometry x="965" y="885" width="60" height="70" as="geometry" />
        </mxCell>
        <mxCell id="uorP1rLEvrpVJQ6o8FZj-185" value="" style="whiteSpace=wrap;html=1;" parent="1" vertex="1">
          <mxGeometry x="1220" y="820" width="120" height="220" as="geometry" />
        </mxCell>
        <mxCell id="uorP1rLEvrpVJQ6o8FZj-186" value="这里是出入口" style="text;html=1;align=center;verticalAlign=middle;resizable=0;points=[];autosize=1;strokeColor=none;fillColor=none;" parent="1" vertex="1">
          <mxGeometry x="1230" y="790" width="100" height="30" as="geometry" />
        </mxCell>
        <mxCell id="uorP1rLEvrpVJQ6o8FZj-188" value="数据A" style="whiteSpace=wrap;html=1;" parent="1" vertex="1">
          <mxGeometry x="1220" y="820" width="120" height="60" as="geometry" />
        </mxCell>
        <mxCell id="uorP1rLEvrpVJQ6o8FZj-189" value="弹出&lt;div&gt;取出&lt;/div&gt;&lt;div&gt;数据B&lt;/div&gt;&lt;div&gt;被取出&lt;/div&gt;" style="text;html=1;align=center;verticalAlign=middle;resizable=0;points=[];autosize=1;strokeColor=none;fillColor=none;" parent="1" vertex="1">
          <mxGeometry x="1155" y="885" width="60" height="70" as="geometry" />
        </mxCell>
        <mxCell id="TR-_zw_JS4UGCkfc58mh-1" value="" style="whiteSpace=wrap;html=1;" parent="1" vertex="1">
          <mxGeometry x="1465" y="560" width="120" height="200" as="geometry" />
        </mxCell>
        <mxCell id="TR-_zw_JS4UGCkfc58mh-2" value="这里是入口" style="text;html=1;align=center;verticalAlign=middle;resizable=0;points=[];autosize=1;strokeColor=none;fillColor=none;" parent="1" vertex="1">
          <mxGeometry x="1485" y="530" width="80" height="30" as="geometry" />
        </mxCell>
        <mxCell id="TR-_zw_JS4UGCkfc58mh-3" value="队列" style="text;html=1;align=center;verticalAlign=middle;resizable=0;points=[];autosize=1;strokeColor=none;fillColor=none;" parent="1" vertex="1">
          <mxGeometry x="1405" y="650" width="50" height="30" as="geometry" />
        </mxCell>
        <mxCell id="TR-_zw_JS4UGCkfc58mh-4" value="" style="whiteSpace=wrap;html=1;" parent="1" vertex="1">
          <mxGeometry x="1655" y="560" width="120" height="200" as="geometry" />
        </mxCell>
        <mxCell id="TR-_zw_JS4UGCkfc58mh-6" value="数据A" style="whiteSpace=wrap;html=1;" parent="1" vertex="1">
          <mxGeometry x="1655" y="560" width="120" height="60" as="geometry" />
        </mxCell>
        <mxCell id="TR-_zw_JS4UGCkfc58mh-7" value="" style="whiteSpace=wrap;html=1;" parent="1" vertex="1">
          <mxGeometry x="1845" y="560" width="120" height="200" as="geometry" />
        </mxCell>
        <mxCell id="TR-_zw_JS4UGCkfc58mh-9" value="数据A" style="whiteSpace=wrap;html=1;" parent="1" vertex="1">
          <mxGeometry x="1845" y="620" width="120" height="60" as="geometry" />
        </mxCell>
        <mxCell id="TR-_zw_JS4UGCkfc58mh-10" value="入队&lt;div&gt;数据A&lt;/div&gt;" style="text;html=1;align=center;verticalAlign=middle;resizable=0;points=[];autosize=1;strokeColor=none;fillColor=none;" parent="1" vertex="1">
          <mxGeometry x="1590" y="640" width="60" height="40" as="geometry" />
        </mxCell>
        <mxCell id="TR-_zw_JS4UGCkfc58mh-11" value="&lt;div&gt;入队&lt;/div&gt;&lt;div&gt;数据B&lt;/div&gt;" style="text;html=1;align=center;verticalAlign=middle;resizable=0;points=[];autosize=1;strokeColor=none;fillColor=none;" parent="1" vertex="1">
          <mxGeometry x="1780" y="645" width="60" height="40" as="geometry" />
        </mxCell>
        <mxCell id="TR-_zw_JS4UGCkfc58mh-12" value="数据B" style="whiteSpace=wrap;html=1;" parent="1" vertex="1">
          <mxGeometry x="1845" y="560" width="120" height="60" as="geometry" />
        </mxCell>
        <mxCell id="TR-_zw_JS4UGCkfc58mh-13" value="" style="whiteSpace=wrap;html=1;" parent="1" vertex="1">
          <mxGeometry x="1465" y="820" width="120" height="200" as="geometry" />
        </mxCell>
        <mxCell id="TR-_zw_JS4UGCkfc58mh-14" value="这里是出入口" style="text;html=1;align=center;verticalAlign=middle;resizable=0;points=[];autosize=1;strokeColor=none;fillColor=none;" parent="1" vertex="1">
          <mxGeometry x="1475" y="790" width="100" height="30" as="geometry" />
        </mxCell>
        <mxCell id="TR-_zw_JS4UGCkfc58mh-15" value="数据B" style="whiteSpace=wrap;html=1;" parent="1" vertex="1">
          <mxGeometry x="1465" y="880" width="120" height="60" as="geometry" />
        </mxCell>
        <mxCell id="TR-_zw_JS4UGCkfc58mh-16" value="入栈&lt;div&gt;推入&lt;/div&gt;&lt;div&gt;数据C&lt;/div&gt;" style="text;html=1;align=center;verticalAlign=middle;resizable=0;points=[];autosize=1;strokeColor=none;fillColor=none;" parent="1" vertex="1">
          <mxGeometry x="1400" y="895" width="60" height="60" as="geometry" />
        </mxCell>
        <mxCell id="TR-_zw_JS4UGCkfc58mh-17" value="数据B" style="whiteSpace=wrap;html=1;" parent="1" vertex="1">
          <mxGeometry x="1465" y="820" width="120" height="60" as="geometry" />
        </mxCell>
        <mxCell id="TR-_zw_JS4UGCkfc58mh-18" value="数据A" style="whiteSpace=wrap;html=1;" parent="1" vertex="1">
          <mxGeometry x="1465" y="940" width="120" height="60" as="geometry" />
        </mxCell>
        <mxCell id="TR-_zw_JS4UGCkfc58mh-19" value="" style="whiteSpace=wrap;html=1;" parent="1" vertex="1">
          <mxGeometry x="1655" y="820" width="120" height="200" as="geometry" />
        </mxCell>
        <mxCell id="TR-_zw_JS4UGCkfc58mh-20" value="这里是出入口" style="text;html=1;align=center;verticalAlign=middle;resizable=0;points=[];autosize=1;strokeColor=none;fillColor=none;" parent="1" vertex="1">
          <mxGeometry x="1665" y="790" width="100" height="30" as="geometry" />
        </mxCell>
        <mxCell id="TR-_zw_JS4UGCkfc58mh-21" value="数据B" style="whiteSpace=wrap;html=1;" parent="1" vertex="1">
          <mxGeometry x="1655" y="880" width="120" height="60" as="geometry" />
        </mxCell>
        <mxCell id="TR-_zw_JS4UGCkfc58mh-22" value="数据C" style="whiteSpace=wrap;html=1;" parent="1" vertex="1">
          <mxGeometry x="1655" y="820" width="120" height="60" as="geometry" />
        </mxCell>
        <mxCell id="TR-_zw_JS4UGCkfc58mh-23" value="&lt;div&gt;出队&lt;/div&gt;&lt;div&gt;数据A&lt;/div&gt;&lt;div&gt;被取出&lt;/div&gt;" style="text;html=1;align=center;verticalAlign=middle;resizable=0;points=[];autosize=1;strokeColor=none;fillColor=none;" parent="1" vertex="1">
          <mxGeometry x="1590" y="890" width="60" height="60" as="geometry" />
        </mxCell>
        <mxCell id="TR-_zw_JS4UGCkfc58mh-24" value="" style="whiteSpace=wrap;html=1;" parent="1" vertex="1">
          <mxGeometry x="1845" y="820" width="120" height="200" as="geometry" />
        </mxCell>
        <mxCell id="TR-_zw_JS4UGCkfc58mh-25" value="这里是出入口" style="text;html=1;align=center;verticalAlign=middle;resizable=0;points=[];autosize=1;strokeColor=none;fillColor=none;" parent="1" vertex="1">
          <mxGeometry x="1855" y="790" width="100" height="30" as="geometry" />
        </mxCell>
        <mxCell id="TR-_zw_JS4UGCkfc58mh-26" value="数据C" style="whiteSpace=wrap;html=1;" parent="1" vertex="1">
          <mxGeometry x="1845" y="820" width="120" height="60" as="geometry" />
        </mxCell>
        <mxCell id="TR-_zw_JS4UGCkfc58mh-27" value="&lt;div&gt;出队&lt;/div&gt;&lt;div&gt;数据B&lt;/div&gt;&lt;div&gt;被取出&lt;/div&gt;" style="text;html=1;align=center;verticalAlign=middle;resizable=0;points=[];autosize=1;strokeColor=none;fillColor=none;" parent="1" vertex="1">
          <mxGeometry x="1780" y="890" width="60" height="60" as="geometry" />
        </mxCell>
        <mxCell id="TR-_zw_JS4UGCkfc58mh-28" value="这里是出口" style="text;html=1;align=center;verticalAlign=middle;resizable=0;points=[];autosize=1;strokeColor=none;fillColor=none;" parent="1" vertex="1">
          <mxGeometry x="1485" y="760" width="80" height="30" as="geometry" />
        </mxCell>
        <mxCell id="TR-_zw_JS4UGCkfc58mh-29" value="这里是入口" style="text;html=1;align=center;verticalAlign=middle;resizable=0;points=[];autosize=1;strokeColor=none;fillColor=none;" parent="1" vertex="1">
          <mxGeometry x="1675" y="530" width="80" height="30" as="geometry" />
        </mxCell>
        <mxCell id="TR-_zw_JS4UGCkfc58mh-30" value="这里是入口" style="text;html=1;align=center;verticalAlign=middle;resizable=0;points=[];autosize=1;strokeColor=none;fillColor=none;" parent="1" vertex="1">
          <mxGeometry x="1865" y="530" width="80" height="30" as="geometry" />
        </mxCell>
        <mxCell id="TR-_zw_JS4UGCkfc58mh-31" value="这里是出口" style="text;html=1;align=center;verticalAlign=middle;resizable=0;points=[];autosize=1;strokeColor=none;fillColor=none;" parent="1" vertex="1">
          <mxGeometry x="1675" y="760" width="80" height="30" as="geometry" />
        </mxCell>
        <mxCell id="TR-_zw_JS4UGCkfc58mh-32" value="这里是出口" style="text;html=1;align=center;verticalAlign=middle;resizable=0;points=[];autosize=1;strokeColor=none;fillColor=none;" parent="1" vertex="1">
          <mxGeometry x="1865" y="760" width="80" height="30" as="geometry" />
        </mxCell>
        <mxCell id="TR-_zw_JS4UGCkfc58mh-33" value="这里是出口" style="text;html=1;align=center;verticalAlign=middle;resizable=0;points=[];autosize=1;strokeColor=none;fillColor=none;" parent="1" vertex="1">
          <mxGeometry x="1485" y="1020" width="80" height="30" as="geometry" />
        </mxCell>
        <mxCell id="TR-_zw_JS4UGCkfc58mh-34" value="这里是出口" style="text;html=1;align=center;verticalAlign=middle;resizable=0;points=[];autosize=1;strokeColor=none;fillColor=none;" parent="1" vertex="1">
          <mxGeometry x="1675" y="1020" width="80" height="30" as="geometry" />
        </mxCell>
        <mxCell id="TR-_zw_JS4UGCkfc58mh-35" value="这里是出口" style="text;html=1;align=center;verticalAlign=middle;resizable=0;points=[];autosize=1;strokeColor=none;fillColor=none;" parent="1" vertex="1">
          <mxGeometry x="1865" y="1020" width="80" height="30" as="geometry" />
        </mxCell>
        <mxCell id="TR-_zw_JS4UGCkfc58mh-37" value="数据A" style="whiteSpace=wrap;html=1;" parent="1" vertex="1">
          <mxGeometry x="1440" y="120" width="120" height="60" as="geometry" />
        </mxCell>
        <mxCell id="TR-_zw_JS4UGCkfc58mh-38" value="数据B" style="whiteSpace=wrap;html=1;" parent="1" vertex="1">
          <mxGeometry x="1560" y="120" width="120" height="60" as="geometry" />
        </mxCell>
        <mxCell id="TR-_zw_JS4UGCkfc58mh-39" value="数据C" style="whiteSpace=wrap;html=1;" parent="1" vertex="1">
          <mxGeometry x="1680" y="120" width="120" height="60" as="geometry" />
        </mxCell>
        <mxCell id="TR-_zw_JS4UGCkfc58mh-40" value="数据D" style="whiteSpace=wrap;html=1;" parent="1" vertex="1">
          <mxGeometry x="1800" y="120" width="120" height="60" as="geometry" />
        </mxCell>
        <mxCell id="TR-_zw_JS4UGCkfc58mh-41" value="索引：1" style="text;html=1;align=center;verticalAlign=middle;resizable=0;points=[];autosize=1;strokeColor=none;fillColor=none;" parent="1" vertex="1">
          <mxGeometry x="1460" y="90" width="70" height="30" as="geometry" />
        </mxCell>
        <mxCell id="TR-_zw_JS4UGCkfc58mh-42" value="索引：2" style="text;html=1;align=center;verticalAlign=middle;resizable=0;points=[];autosize=1;strokeColor=none;fillColor=none;" parent="1" vertex="1">
          <mxGeometry x="1585" y="90" width="70" height="30" as="geometry" />
        </mxCell>
        <mxCell id="TR-_zw_JS4UGCkfc58mh-43" value="索引：3" style="text;html=1;align=center;verticalAlign=middle;resizable=0;points=[];autosize=1;strokeColor=none;fillColor=none;" parent="1" vertex="1">
          <mxGeometry x="1705" y="90" width="70" height="30" as="geometry" />
        </mxCell>
        <mxCell id="TR-_zw_JS4UGCkfc58mh-44" value="索引：4" style="text;html=1;align=center;verticalAlign=middle;resizable=0;points=[];autosize=1;strokeColor=none;fillColor=none;" parent="1" vertex="1">
          <mxGeometry x="1825" y="90" width="70" height="30" as="geometry" />
        </mxCell>
        <mxCell id="TR-_zw_JS4UGCkfc58mh-45" value="数据A" style="whiteSpace=wrap;html=1;" parent="1" vertex="1">
          <mxGeometry x="1440" y="240" width="120" height="60" as="geometry" />
        </mxCell>
        <mxCell id="TR-_zw_JS4UGCkfc58mh-46" value="数据B" style="whiteSpace=wrap;html=1;" parent="1" vertex="1">
          <mxGeometry x="1560" y="240" width="120" height="60" as="geometry" />
        </mxCell>
        <mxCell id="TR-_zw_JS4UGCkfc58mh-47" value="数据C" style="whiteSpace=wrap;html=1;" parent="1" vertex="1">
          <mxGeometry x="1680" y="240" width="120" height="60" as="geometry" />
        </mxCell>
        <mxCell id="TR-_zw_JS4UGCkfc58mh-48" value="数据D" style="whiteSpace=wrap;html=1;" parent="1" vertex="1">
          <mxGeometry x="1800" y="240" width="120" height="60" as="geometry" />
        </mxCell>
        <mxCell id="TR-_zw_JS4UGCkfc58mh-49" value="索引：1，1" style="text;html=1;align=center;verticalAlign=middle;resizable=0;points=[];autosize=1;strokeColor=none;fillColor=none;" parent="1" vertex="1">
          <mxGeometry x="1455" y="210" width="80" height="30" as="geometry" />
        </mxCell>
        <mxCell id="TR-_zw_JS4UGCkfc58mh-50" value="索引：1，2" style="text;html=1;align=center;verticalAlign=middle;resizable=0;points=[];autosize=1;strokeColor=none;fillColor=none;" parent="1" vertex="1">
          <mxGeometry x="1580" y="210" width="80" height="30" as="geometry" />
        </mxCell>
        <mxCell id="TR-_zw_JS4UGCkfc58mh-51" value="索引：1，3" style="text;html=1;align=center;verticalAlign=middle;resizable=0;points=[];autosize=1;strokeColor=none;fillColor=none;" parent="1" vertex="1">
          <mxGeometry x="1700" y="210" width="80" height="30" as="geometry" />
        </mxCell>
        <mxCell id="TR-_zw_JS4UGCkfc58mh-52" value="索引：1，4" style="text;html=1;align=center;verticalAlign=middle;resizable=0;points=[];autosize=1;strokeColor=none;fillColor=none;" parent="1" vertex="1">
          <mxGeometry x="1820" y="210" width="80" height="30" as="geometry" />
        </mxCell>
        <mxCell id="TR-_zw_JS4UGCkfc58mh-53" value="数据A" style="whiteSpace=wrap;html=1;" parent="1" vertex="1">
          <mxGeometry x="1440" y="330" width="120" height="60" as="geometry" />
        </mxCell>
        <mxCell id="TR-_zw_JS4UGCkfc58mh-54" value="数据B" style="whiteSpace=wrap;html=1;" parent="1" vertex="1">
          <mxGeometry x="1560" y="330" width="120" height="60" as="geometry" />
        </mxCell>
        <mxCell id="TR-_zw_JS4UGCkfc58mh-55" value="数据C" style="whiteSpace=wrap;html=1;" parent="1" vertex="1">
          <mxGeometry x="1680" y="330" width="120" height="60" as="geometry" />
        </mxCell>
        <mxCell id="TR-_zw_JS4UGCkfc58mh-56" value="数据D" style="whiteSpace=wrap;html=1;" parent="1" vertex="1">
          <mxGeometry x="1800" y="330" width="120" height="60" as="geometry" />
        </mxCell>
        <mxCell id="TR-_zw_JS4UGCkfc58mh-57" value="索引：2，1" style="text;html=1;align=center;verticalAlign=middle;resizable=0;points=[];autosize=1;strokeColor=none;fillColor=none;" parent="1" vertex="1">
          <mxGeometry x="1455" y="300" width="80" height="30" as="geometry" />
        </mxCell>
        <mxCell id="TR-_zw_JS4UGCkfc58mh-58" value="索引：2，2" style="text;html=1;align=center;verticalAlign=middle;resizable=0;points=[];autosize=1;strokeColor=none;fillColor=none;" parent="1" vertex="1">
          <mxGeometry x="1580" y="300" width="80" height="30" as="geometry" />
        </mxCell>
        <mxCell id="TR-_zw_JS4UGCkfc58mh-59" value="索引：2，3" style="text;html=1;align=center;verticalAlign=middle;resizable=0;points=[];autosize=1;strokeColor=none;fillColor=none;" parent="1" vertex="1">
          <mxGeometry x="1700" y="300" width="80" height="30" as="geometry" />
        </mxCell>
        <mxCell id="TR-_zw_JS4UGCkfc58mh-60" value="索引：2，4" style="text;html=1;align=center;verticalAlign=middle;resizable=0;points=[];autosize=1;strokeColor=none;fillColor=none;" parent="1" vertex="1">
          <mxGeometry x="1820" y="300" width="80" height="30" as="geometry" />
        </mxCell>
        <mxCell id="VqdJGc8f8eAZwvM8zGAW-1" value="" style="whiteSpace=wrap;html=1;" vertex="1" parent="1">
          <mxGeometry x="1520" y="1280" width="360" height="200" as="geometry" />
        </mxCell>
        <mxCell id="VqdJGc8f8eAZwvM8zGAW-2" value="进程" style="text;html=1;align=center;verticalAlign=middle;resizable=0;points=[];autosize=1;strokeColor=none;fillColor=none;" vertex="1" parent="1">
          <mxGeometry x="1520" y="1280" width="50" height="30" as="geometry" />
        </mxCell>
        <mxCell id="VqdJGc8f8eAZwvM8zGAW-4" value="系统分配的内存" style="whiteSpace=wrap;html=1;" vertex="1" parent="1">
          <mxGeometry x="1760" y="1280" width="120" height="60" as="geometry" />
        </mxCell>
        <mxCell id="VqdJGc8f8eAZwvM8zGAW-5" value="系统分配的资源" style="whiteSpace=wrap;html=1;" vertex="1" parent="1">
          <mxGeometry x="1760" y="1340" width="120" height="60" as="geometry" />
        </mxCell>
        <mxCell id="VqdJGc8f8eAZwvM8zGAW-6" value="线程1" style="whiteSpace=wrap;html=1;" vertex="1" parent="1">
          <mxGeometry x="1530" y="1410" width="120" height="60" as="geometry" />
        </mxCell>
        <mxCell id="VqdJGc8f8eAZwvM8zGAW-7" value="线程2" style="whiteSpace=wrap;html=1;" vertex="1" parent="1">
          <mxGeometry x="1530" y="1350" width="120" height="60" as="geometry" />
        </mxCell>
        <mxCell id="VqdJGc8f8eAZwvM8zGAW-8" value="代码在上面" style="text;html=1;align=center;verticalAlign=middle;resizable=0;points=[];autosize=1;strokeColor=none;fillColor=none;" vertex="1" parent="1">
          <mxGeometry x="1550" y="1320" width="80" height="30" as="geometry" />
        </mxCell>
        <mxCell id="VqdJGc8f8eAZwvM8zGAW-10" style="edgeStyle=orthogonalEdgeStyle;rounded=0;orthogonalLoop=1;jettySize=auto;html=1;entryX=1;entryY=0.5;entryDx=0;entryDy=0;" edge="1" parent="1" source="VqdJGc8f8eAZwvM8zGAW-9" target="VqdJGc8f8eAZwvM8zGAW-7">
          <mxGeometry relative="1" as="geometry" />
        </mxCell>
        <mxCell id="VqdJGc8f8eAZwvM8zGAW-11" style="edgeStyle=orthogonalEdgeStyle;rounded=0;orthogonalLoop=1;jettySize=auto;html=1;entryX=1;entryY=0.5;entryDx=0;entryDy=0;" edge="1" parent="1" source="VqdJGc8f8eAZwvM8zGAW-9" target="VqdJGc8f8eAZwvM8zGAW-6">
          <mxGeometry relative="1" as="geometry" />
        </mxCell>
        <mxCell id="VqdJGc8f8eAZwvM8zGAW-9" value="CPU" style="whiteSpace=wrap;html=1;" vertex="1" parent="1">
          <mxGeometry x="1640" y="1200" width="120" height="60" as="geometry" />
        </mxCell>
        <mxCell id="VqdJGc8f8eAZwvM8zGAW-12" value="调度运行" style="text;html=1;align=center;verticalAlign=middle;resizable=0;points=[];autosize=1;strokeColor=none;fillColor=none;" vertex="1" parent="1">
          <mxGeometry x="1700" y="1410" width="70" height="30" as="geometry" />
        </mxCell>
        <mxCell id="VqdJGc8f8eAZwvM8zGAW-13" value="等资源" style="text;html=1;align=center;verticalAlign=middle;resizable=0;points=[];autosize=1;strokeColor=none;fillColor=none;" vertex="1" parent="1">
          <mxGeometry x="1790" y="1400" width="60" height="30" as="geometry" />
        </mxCell>
      </root>
    </mxGraphModel>
  </diagram>
</mxfile>
